Coordinates
version=1
nRows=49
nColumns=12
inDegrees=yes

Units are S.I. units (second, meters, Newtons, ...)
Angles are in degrees

endheader
time	SC_y	SC_z	SC_x	AC_y	AC_z	AC_x	GH_y	GH_z	GH_yy	EL_x	PS_y
       0.0              -53.75          24.45          51.91          49.92         -3.394          10.34         -86.42         -5.295          136.3          64.42          62.42
  0.003244              -53.75          24.44          51.91          49.92         -3.395          10.34         -86.42         -5.287          136.3          64.41          62.41
  0.006488              -53.74          24.44          51.91          49.92         -3.396          10.34         -86.41         -5.278          136.3          64.41           62.4
  0.009732              -53.74          24.44          51.91          49.92         -3.397          10.34          -86.4         -5.268          136.3           64.4           62.4
   0.01298              -53.74          24.43           51.9          49.92         -3.399          10.34         -86.39         -5.258          136.3           64.4          62.39
   0.01622              -53.74          24.43           51.9          49.92           -3.4          10.34         -86.37         -5.247          136.3          64.39          62.38
   0.01946              -53.74          24.42           51.9          49.92         -3.401          10.34         -86.36         -5.236          136.2          64.39          62.37
   0.02271              -53.74          24.42           51.9          49.92         -3.402          10.34         -86.35         -5.223          136.2          64.38          62.36
   0.02595              -53.74          24.41           51.9          49.93         -3.404          10.34         -86.34          -5.21          136.2          64.38          62.35
    0.0292              -53.74          24.41           51.9          49.93         -3.406          10.34         -86.32         -5.196          136.2          64.37          62.34
   0.03244              -53.74           24.4          51.89          49.93         -3.407          10.34          -86.3          -5.18          136.2          64.36          62.32
   0.03568              -53.74           24.4          51.89          49.93         -3.409          10.34         -86.29         -5.164          136.1          64.36          62.31
   0.03893              -53.74          24.39          51.89          49.93         -3.411          10.34         -86.27         -5.146          136.1          64.35           62.3
   0.04217              -53.74          24.38          51.89          49.94         -3.413          10.34         -86.25         -5.127          136.1          64.34          62.28
   0.04542              -53.74          24.38          51.88          49.94         -3.416          10.34         -86.23         -5.106          136.0          64.33          62.27
   0.04866              -53.74          24.37          51.88          49.94         -3.418          10.34          -86.2         -5.084          136.0          64.32          62.25
    0.0519              -53.74          24.36          51.88          49.95         -3.421          10.34         -86.18         -5.059          136.0          64.31          62.23
   0.05515              -53.74          24.35          51.87          49.95         -3.424          10.34         -86.15         -5.032          135.9          64.29          62.21
   0.05839              -53.74          24.34          51.87          49.95         -3.427          10.34         -86.12         -5.003          135.9          64.28          62.18
   0.06164              -53.74          24.32          51.86          49.96         -3.431          10.34         -86.09         -4.971          135.8          64.27          62.16
   0.06488              -53.74          24.31          51.86          49.96         -3.435          10.34         -86.05         -4.936          135.8          64.25          62.13
   0.06812              -53.74           24.3          51.85          49.97         -3.439          10.34         -86.01         -4.898          135.7          64.23           62.1
   0.07137              -53.74          24.28          51.85          49.97         -3.444          10.34         -85.97         -4.855          135.7          64.21          62.06
   0.07461              -53.74          24.26          51.84          49.98         -3.449          10.34         -85.92         -4.808          135.6          64.19          62.03
   0.07786              -53.74          24.24          51.83          49.98         -3.455          10.34         -85.86         -4.756          135.5          64.17          61.98
    0.0811              -53.74          24.22          51.83          49.99         -3.462          10.34          -85.8         -4.697          135.4          64.14          61.94
   0.08434              -53.74           24.2          51.82           50.0         -3.469          10.34         -85.73         -4.632          135.3          64.11          61.88
   0.08759              -53.74          24.17          51.81          50.01         -3.478          10.34         -85.66         -4.558          135.2          64.08          61.82
   0.09083              -53.74          24.14          51.79          50.02         -3.487          10.34         -85.57         -4.475          135.1          64.04          61.76
   0.09408              -53.74           24.1          51.78          50.03         -3.498          10.34         -85.47          -4.38          135.0           64.0          61.68
   0.09732              -53.74          24.06          51.77          50.05          -3.51          10.34         -85.36         -4.272          134.8          63.95           61.6
    0.1006              -53.74          24.01          51.75          50.06         -3.524          10.34         -85.23         -4.148          134.6          63.89           61.5
    0.1038              -53.74          23.96          51.73          50.08          -3.54          10.34         -85.08         -4.005          134.4          63.82          61.38
    0.1071              -53.74          23.89          51.71           50.1         -3.559          10.34         -84.91         -3.839          134.1          63.75          61.25
    0.1103              -53.74          23.82          51.68          50.13         -3.581          10.34         -84.71         -3.644          133.8          63.66          61.09
    0.1135              -53.74          23.73          51.65          50.16         -3.607          10.34         -84.47         -3.415          133.5          63.55          60.91
    0.1168              -53.74          23.63          51.61          50.19         -3.638          10.34         -84.18         -3.143          133.1          63.43          60.69
      0.12              -53.73          23.51          51.56          50.23         -3.675          10.34         -83.84         -2.816          132.6          63.28          60.43
    0.1233              -53.73          23.36          51.51          50.28         -3.719          10.34         -83.43         -2.421          132.0          63.09          60.11
    0.1265              -53.73          23.17          51.44          50.34         -3.774          10.34         -82.93         -1.938          131.3          62.87          59.72
    0.1298              -53.73          22.95          51.36          50.42         -3.841          10.33         -82.31         -1.343          130.4           62.6          59.24
     0.133              -53.72          22.67          51.25          50.51         -3.925          10.33         -81.54           -0.6          129.3          62.26          58.65
    0.1362              -53.72          22.31          51.12          50.63         -4.031          10.33         -80.56         0.3358          127.9          61.83           57.9
    0.1395              -53.71          21.86          50.96          50.79         -4.166          10.33         -79.33          1.525          126.1          61.28          56.94
    0.1427              -53.71          21.28          50.74          50.98         -4.338          10.33         -77.74          3.048          123.8          60.58          55.72
     0.146               -53.7          20.54          50.47          51.23         -4.559          10.32         -75.71          5.002          120.8          59.68          54.15
    0.1492              -53.69          19.59          50.12          51.55         -4.841          10.32         -73.11          7.497          117.1          58.54          52.15
    0.1525              -53.67           18.4          49.68          51.95         -5.196          10.31         -69.84          10.64          112.4          57.09          49.63
    0.1557              -53.65          16.95          49.15          52.44         -5.629           10.3         -65.86          14.46          106.6          55.34          46.55
